<svg width="172" height="40" viewBox="0 0 172 40" fill="none" xmlns="http://www.w3.org/2000/svg">
<path d="M14.9801 11.7273V15.2784H0.278409V11.7273H14.9801ZM4.68182 39V7.96307C4.68182 6.40057 5.04877 5.09848 5.78267 4.05682C6.51657 3.01515 7.46946 2.2339 8.64134 1.71307C9.81321 1.19223 11.0502 0.931816 12.3523 0.931816C13.3821 0.931816 14.2225 1.01468 14.8736 1.1804C15.5246 1.34612 16.0099 1.5 16.3295 1.64204L15.1222 5.2642C14.9091 5.19318 14.6132 5.1044 14.2344 4.99787C13.8674 4.89133 13.3821 4.83807 12.7784 4.83807C11.3935 4.83807 10.3932 5.18726 9.7777 5.88565C9.17401 6.58404 8.87216 7.60795 8.87216 8.95738V39H4.68182ZM54.9144 39.5682C52.2866 39.5682 50.0198 38.9882 48.114 37.8281C46.2201 36.6562 44.7582 35.0227 43.7283 32.9276C42.7103 30.8205 42.2013 28.3703 42.2013 25.5767C42.2013 22.7831 42.7103 20.321 43.7283 18.1903C44.7582 16.0478 46.1905 14.3788 48.0252 13.1832C49.8718 11.9759 52.0262 11.3722 54.4883 11.3722C55.9087 11.3722 57.3114 11.6089 58.6964 12.0824C60.0813 12.5559 61.342 13.3253 62.4783 14.3906C63.6147 15.4441 64.5202 16.8409 65.195 18.581C65.8697 20.321 66.207 22.4635 66.207 25.0085V26.7841H45.1843V23.1619H61.9457C61.9457 21.6231 61.6379 20.25 61.0224 19.0426C60.4187 17.8352 59.5546 16.8823 58.43 16.1839C57.3174 15.4856 56.0034 15.1364 54.4883 15.1364C52.8192 15.1364 51.3751 15.5507 50.1559 16.3793C48.9485 17.196 48.0193 18.2614 47.3683 19.5753C46.7172 20.8892 46.3917 22.2978 46.3917 23.8011V26.2159C46.3917 28.2756 46.7468 30.0215 47.457 31.4538C48.1791 32.8743 49.1793 33.9574 50.4577 34.7031C51.7362 35.437 53.2217 35.804 54.9144 35.804C56.0153 35.804 57.0096 35.6501 57.8974 35.3423C58.797 35.0227 59.5723 34.5492 60.2234 33.9219C60.8744 33.2827 61.3775 32.4896 61.7326 31.5426L65.7809 32.679C65.3548 34.0521 64.6386 35.2595 63.6325 36.3011C62.6263 37.331 61.3834 38.1359 59.9038 38.7159C58.4241 39.2841 56.761 39.5682 54.9144 39.5682ZM107.411 39.5682C104.854 39.5682 102.652 38.9645 100.806 37.7571C98.9592 36.5497 97.5387 34.8866 96.5444 32.7678C95.5501 30.6489 95.0529 28.2282 95.0529 25.5057C95.0529 22.7358 95.5619 20.2914 96.5799 18.1726C97.6097 16.0419 99.042 14.3788 100.877 13.1832C102.723 11.9759 104.878 11.3722 107.34 11.3722C109.257 11.3722 110.986 11.7273 112.525 12.4375C114.063 13.1477 115.324 14.142 116.306 15.4205C117.289 16.6989 117.899 18.1903 118.135 19.8949H113.945C113.625 18.652 112.915 17.5511 111.814 16.5923C110.725 15.6217 109.257 15.1364 107.411 15.1364C105.777 15.1364 104.345 15.5625 103.114 16.4148C101.895 17.2552 100.942 18.4448 100.255 19.9837C99.5806 21.5107 99.2433 23.304 99.2433 25.3636C99.2433 27.4706 99.5747 29.3054 100.238 30.8679C100.912 32.4304 101.859 33.6437 103.078 34.5078C104.31 35.3719 105.754 35.804 107.411 35.804C108.5 35.804 109.488 35.6146 110.376 35.2358C111.264 34.857 112.016 34.3125 112.631 33.6023C113.247 32.892 113.685 32.0398 113.945 31.0455H118.135C117.899 32.6553 117.313 34.1054 116.377 35.3956C115.454 36.674 114.229 37.692 112.702 38.4496C111.187 39.1953 109.423 39.5682 107.411 39.5682ZM159.091 39.5682C156.628 39.5682 154.468 38.9822 152.61 37.8104C150.763 36.6385 149.319 34.9991 148.277 32.892C147.248 30.785 146.733 28.3229 146.733 25.5057C146.733 22.6648 147.248 20.1849 148.277 18.0661C149.319 15.9472 150.763 14.3018 152.61 13.13C154.468 11.9581 156.628 11.3722 159.091 11.3722C161.553 11.3722 163.707 11.9581 165.554 13.13C167.412 14.3018 168.856 15.9472 169.886 18.0661C170.928 20.1849 171.449 22.6648 171.449 25.5057C171.449 28.3229 170.928 30.785 169.886 32.892C168.856 34.9991 167.412 36.6385 165.554 37.8104C163.707 38.9822 161.553 39.5682 159.091 39.5682ZM159.091 35.804C160.961 35.804 162.5 35.3246 163.707 34.3658C164.914 33.407 165.808 32.1463 166.388 30.5838C166.968 29.0213 167.258 27.3286 167.258 25.5057C167.258 23.6828 166.968 21.9841 166.388 20.4098C165.808 18.8355 164.914 17.563 163.707 16.5923C162.5 15.6217 160.961 15.1364 159.091 15.1364C157.22 15.1364 155.681 15.6217 154.474 16.5923C153.267 17.563 152.373 18.8355 151.793 20.4098C151.213 21.9841 150.923 23.6828 150.923 25.5057C150.923 27.3286 151.213 29.0213 151.793 30.5838C152.373 32.1463 153.267 33.407 154.474 34.3658C155.681 35.3246 157.22 35.804 159.091 35.804Z" fill="white"/>
</svg>
