<svg width="198" height="175" viewBox="0 0 198 175" fill="none" xmlns="http://www.w3.org/2000/svg">
<path d="M1.26989 113.724C0.985796 104.776 2.07481 97.1998 4.53693 90.9972C6.99905 84.7945 10.5739 80.0833 15.2614 76.8636C19.9962 73.6439 25.5597 72.0341 31.9517 72.0341C36.4025 72.0341 40.6638 72.9574 44.7358 74.804C48.8078 76.6506 53.4242 79.8466 58.5852 84.392C61.3314 86.8068 63.6515 88.6534 65.5455 89.9318C67.4394 91.1629 69.6174 91.7784 72.0795 91.7784C75.4413 91.7784 78.2112 90.4763 80.3892 87.8722C82.5672 85.2206 83.5852 81.0303 83.4432 75.3011H106.597C106.928 84.2973 105.839 91.8968 103.33 98.0994C100.82 104.302 97.1979 109.013 92.4631 112.233C87.7282 115.453 82.2121 117.062 75.9148 117.062C71.2273 117.062 66.8239 116.092 62.7045 114.151C58.6326 112.162 54.1108 108.99 49.1392 104.634C46.2036 102.029 43.8599 100.159 42.108 99.0227C40.3561 97.839 38.2727 97.2472 35.858 97.2472C32.4962 97.2472 29.7263 98.5256 27.5483 101.082C25.3703 103.592 24.3523 107.806 24.4943 113.724H1.26989ZM197.364 0.727263L150.489 174.875H124.423L171.298 0.727263H197.364Z" fill="white"/>
</svg>
